#define 279cf4c4b57e4763eca99e1cf89acfdaLQohWb74k652olU8_width 64
#define 279cf4c4b57e4763eca99e1cf89acfdaLQohWb74k652olU8_height 64
static char 279cf4c4b57e4763eca99e1cf89acfdaLQohWb74k652olU8_bits[] = {
  0x00, 0x00, 0x00, 0x00, 0x00, 0x00, 0x00, 0x00, 0x00, 0x00, 0x00, 0x00, 
  0x00, 0x00, 0x00, 0x00, 0x00, 0x00, 0x00, 0x00, 0x00, 0x00, 0x00, 0x00, 
  0x00, 0x00, 0x00, 0x06, 0x00, 0x00, 0x00, 0x00, 0x00, 0x00, 0x00, 0x0F, 
  0x00, 0x00, 0x00, 0x00, 0x00, 0x00, 0x00, 0x1F, 0x00, 0x00, 0x00, 0x00, 
  0x00, 0x00, 0x80, 0x31, 0x00, 0x00, 0x00, 0x00, 0x00, 0x00, 0x80, 0xE1, 
  0x00, 0x00, 0x00, 0x00, 0x00, 0x00, 0xC0, 0xC1, 0x07, 0x00, 0x00, 0x00, 
  0x00, 0x00, 0xF0, 0x81, 0x3F, 0x00, 0x00, 0x00, 0x00, 0x00, 0x78, 0x00, 
  0xF8, 0x00, 0x00, 0x00, 0x00, 0x00, 0x18, 0x00, 0xC0, 0x03, 0x00, 0x00, 
  0x00, 0x00, 0x0C, 0x00, 0x00, 0x0F, 0x00, 0x00, 0x00, 0x00, 0x0C, 0x00, 
  0x00, 0x1C, 0x00, 0x00, 0x00, 0x00, 0x06, 0x00, 0x00, 0x38, 0x00, 0x00, 
  0x00, 0x00, 0x06, 0x00, 0x00, 0x70, 0x00, 0x00, 0x00, 0x00, 0x06, 0x00, 
  0x00, 0xC0, 0x00, 0x00, 0x00, 0x00, 0x06, 0x00, 0x00, 0x80, 0x01, 0x00, 
  0x00, 0x00, 0x03, 0x00, 0x00, 0x80, 0x03, 0x00, 0x00, 0x00, 0x03, 0x00, 
  0x00, 0x00, 0x03, 0x00, 0x00, 0x80, 0x01, 0x00, 0x00, 0x00, 0x06, 0x00, 
  0x00, 0xC0, 0x01, 0x00, 0x00, 0x00, 0x06, 0x00, 0x00, 0xE0, 0x00, 0x00, 
  0x00, 0x00, 0x0C, 0x00, 0x00, 0x60, 0x00, 0x00, 0x00, 0x00, 0x0C, 0x00, 
  0x00, 0x30, 0x00, 0x00, 0x00, 0x00, 0x0C, 0x00, 0x00, 0x38, 0x00, 0x00, 
  0x00, 0x00, 0x0C, 0x00, 0x00, 0x18, 0x00, 0xC0, 0x07, 0x00, 0x0C, 0x00, 
  0x00, 0x1C, 0x00, 0xC0, 0x07, 0x00, 0x18, 0x00, 0x00, 0x0C, 0x00, 0x60, 
  0x0C, 0x00, 0x18, 0x00, 0x00, 0x0E, 0x00, 0x78, 0x06, 0x00, 0x18, 0x00, 
  0x00, 0x06, 0x00, 0x1E, 0x06, 0x00, 0x18, 0x00, 0x00, 0x06, 0xE0, 0x0F, 
  0x07, 0x00, 0x18, 0x00, 0x00, 0x06, 0xF0, 0x01, 0x03, 0x00, 0x18, 0x00, 
  0x00, 0x0C, 0x38, 0x80, 0x01, 0x00, 0x18, 0x00, 0x00, 0x3C, 0x1C, 0xC0, 
  0x01, 0x00, 0x18, 0x00, 0x00, 0xF0, 0x0F, 0xE0, 0x00, 0x00, 0x18, 0x00, 
  0x00, 0xE0, 0x07, 0x38, 0x00, 0x00, 0x18, 0x00, 0x00, 0x00, 0x00, 0x1C, 
  0x00, 0x00, 0x18, 0x00, 0x00, 0x00, 0x00, 0x0E, 0x00, 0x00, 0x18, 0x00, 
  0x00, 0x00, 0x00, 0x07, 0x00, 0x00, 0x18, 0x00, 0x00, 0x00, 0x80, 0x01, 
  0x00, 0x00, 0x0C, 0x00, 0x00, 0x00, 0xC0, 0x00, 0x00, 0x00, 0x0C, 0x00, 
  0x00, 0x00, 0x60, 0x00, 0x00, 0x00, 0x0C, 0x00, 0x00, 0x00, 0x60, 0x00, 
  0x00, 0x00, 0x0C, 0x00, 0x00, 0x00, 0x30, 0x00, 0x00, 0x00, 0x06, 0x00, 
  0x00, 0x00, 0x30, 0x00, 0x00, 0x00, 0x06, 0x00, 0x00, 0x00, 0xF0, 0xFF, 
  0xFF, 0x3F, 0x07, 0x00, 0x00, 0x00, 0xF8, 0xFF, 0xFF, 0xFF, 0x03, 0x00, 
  0x00, 0x00, 0x7E, 0x00, 0x00, 0xE0, 0x0F, 0x00, 0x00, 0x00, 0x07, 0x00, 
  0x00, 0x00, 0x1E, 0x00, 0x00, 0x80, 0x03, 0x00, 0x00, 0x00, 0x38, 0x00, 
  0x00, 0xC0, 0x01, 0x00, 0x00, 0x00, 0x30, 0x00, 0x00, 0xC0, 0x00, 0x00, 
  0x00, 0x00, 0x70, 0x00, 0x00, 0xC0, 0x00, 0x00, 0x00, 0x00, 0x60, 0x00, 
  0x00, 0xC0, 0x00, 0x00, 0x00, 0x00, 0x60, 0x00, 0x00, 0xC0, 0x00, 0x00, 
  0x00, 0x00, 0x60, 0x00, 0x00, 0xC0, 0x00, 0x00, 0x00, 0x00, 0x60, 0x00, 
  0x00, 0xC0, 0x00, 0x00, 0x00, 0x00, 0x60, 0x00, 0x00, 0xC0, 0x00, 0x00, 
  0x00, 0x00, 0x60, 0x00, 0x00, 0xC0, 0xFF, 0xFF, 0xFF, 0xFF, 0x7F, 0x00, 
  0x00, 0xC0, 0xFF, 0xFF, 0xFF, 0xFF, 0x7F, 0x00, 0x00, 0x00, 0x00, 0x00, 
  0x00, 0x00, 0x00, 0x00, 0x00, 0x00, 0x00, 0x00, 0x00, 0x00, 0x00, 0x00, 
  0x00, 0x00, 0x00, 0x00, 0x00, 0x00, 0x00, 0x00, };
