#define 98e1913e014a4ed6c54f4a8500a7ae0cWLdd9VabqoOJ2y1B_width 64
#define 98e1913e014a4ed6c54f4a8500a7ae0cWLdd9VabqoOJ2y1B_height 64
static char 98e1913e014a4ed6c54f4a8500a7ae0cWLdd9VabqoOJ2y1B_bits[] = {
  0x00, 0x00, 0x00, 0x00, 0x00, 0x00, 0x00, 0x00, 0x00, 0x00, 0x00, 0x00, 
  0x00, 0x00, 0x00, 0x00, 0x00, 0x00, 0x00, 0xF8, 0x1F, 0x00, 0x00, 0x00, 
  0x00, 0x00, 0x00, 0xF8, 0x1F, 0x00, 0x00, 0x00, 0x00, 0x00, 0x00, 0x18, 
  0x18, 0x00, 0x00, 0x00, 0x00, 0x00, 0x00, 0x18, 0x18, 0x00, 0x00, 0x00, 
  0x00, 0x00, 0x00, 0x18, 0x18, 0x00, 0x00, 0x00, 0x00, 0x00, 0x00, 0x18, 
  0x18, 0x00, 0x00, 0x00, 0x00, 0x00, 0x00, 0x18, 0x18, 0x00, 0x00, 0x00, 
  0x00, 0x00, 0x00, 0x18, 0x18, 0x00, 0x00, 0x00, 0x00, 0x00, 0x00, 0x18, 
  0x18, 0x00, 0x00, 0x00, 0x00, 0x00, 0xC0, 0x1F, 0xF8, 0x03, 0x00, 0x00, 
  0x00, 0x00, 0xC0, 0x0F, 0xF0, 0x03, 0x00, 0x00, 0x00, 0x00, 0xC0, 0x00, 
  0x00, 0x03, 0x00, 0x00, 0x00, 0x00, 0xC0, 0x00, 0x00, 0x03, 0x00, 0x00, 
  0x00, 0x00, 0xC0, 0x00, 0x00, 0x03, 0x00, 0x00, 0x00, 0x00, 0xC0, 0x1F, 
  0xF8, 0x03, 0x00, 0x00, 0x00, 0x00, 0xC0, 0x1F, 0xF8, 0x03, 0x00, 0x00, 
  0x00, 0x00, 0x00, 0x18, 0x18, 0x00, 0x00, 0x00, 0x00, 0x80, 0x3F, 0x1C, 
  0x38, 0xFC, 0x01, 0x00, 0x00, 0xF0, 0xFF, 0x0C, 0xB0, 0xFF, 0x0F, 0x00, 
  0x00, 0x78, 0xC0, 0x0F, 0xF0, 0x03, 0x1E, 0x00, 0x00, 0x1E, 0x00, 0x0F, 
  0xF0, 0x00, 0x78, 0x00, 0x00, 0x07, 0x00, 0x04, 0x20, 0x00, 0xE0, 0x00, 
  0x80, 0x03, 0x00, 0x00, 0x00, 0x00, 0xC0, 0x01, 0x80, 0x01, 0x00, 0x00, 
  0x00, 0x00, 0x80, 0x01, 0xC0, 0x00, 0x00, 0x00, 0x00, 0x00, 0x00, 0x03, 
  0xE0, 0x00, 0x00, 0x00, 0x00, 0x00, 0x00, 0x07, 0x60, 0x00, 0x00, 0x00, 
  0x00, 0x00, 0x00, 0x06, 0x60, 0x00, 0x7E, 0x00, 0x00, 0x7E, 0x00, 0x06, 
  0x70, 0x00, 0xFF, 0x01, 0x80, 0xFF, 0x00, 0x0E, 0x30, 0x80, 0x83, 0x03, 
  0xC0, 0xC1, 0x01, 0x0C, 0x30, 0x80, 0x01, 0x07, 0xE0, 0x80, 0x01, 0x0C, 
  0x30, 0x80, 0x01, 0x06, 0x60, 0x80, 0x01, 0x0C, 0x30, 0x80, 0x01, 0x06, 
  0x60, 0x80, 0x01, 0x0C, 0x60, 0x00, 0x03, 0x06, 0x60, 0xC0, 0x00, 0x06, 
  0x60, 0x00, 0x07, 0x06, 0x60, 0xE0, 0x00, 0x06, 0x60, 0x00, 0x0E, 0x06, 
  0x60, 0x70, 0x00, 0x06, 0xC0, 0x00, 0x0C, 0x06, 0x60, 0x30, 0x00, 0x03, 
  0xC0, 0x00, 0x18, 0x06, 0x60, 0x18, 0x00, 0x03, 0x80, 0x01, 0x38, 0x06, 
  0x60, 0x1C, 0x80, 0x01, 0x80, 0x03, 0xF0, 0x07, 0xE0, 0x0F, 0xC0, 0x01, 
  0x00, 0x07, 0xE0, 0x07, 0xE0, 0x07, 0xE0, 0x00, 0x00, 0x06, 0x00, 0x00, 
  0x00, 0x00, 0x60, 0x00, 0x00, 0x0C, 0x00, 0x00, 0x00, 0x00, 0x30, 0x00, 
  0x00, 0x1C, 0x00, 0x00, 0x00, 0x00, 0x38, 0x00, 0x00, 0x38, 0x00, 0x00, 
  0x00, 0x00, 0x1C, 0x00, 0x00, 0x70, 0x00, 0x00, 0x00, 0x00, 0x0E, 0x00, 
  0x00, 0xE0, 0x00, 0x00, 0x00, 0x00, 0x07, 0x00, 0x00, 0x80, 0xF3, 0xFF, 
  0xFF, 0xDF, 0x01, 0x00, 0x00, 0x00, 0xFF, 0xFF, 0xFF, 0xFF, 0x01, 0x00, 
  0x00, 0x80, 0x1F, 0x00, 0x00, 0xE0, 0x03, 0x00, 0x00, 0xC0, 0x01, 0x00, 
  0x00, 0x00, 0x07, 0x00, 0x00, 0x60, 0x00, 0x00, 0x00, 0x00, 0x0C, 0x00, 
  0x00, 0x70, 0x00, 0x00, 0x00, 0x00, 0x1C, 0x00, 0x00, 0x30, 0x00, 0x00, 
  0x00, 0x00, 0x18, 0x00, 0x00, 0x30, 0x00, 0x00, 0x00, 0x00, 0x18, 0x00, 
  0x00, 0x30, 0x00, 0x00, 0x00, 0x00, 0x18, 0x00, 0x00, 0x30, 0x00, 0x00, 
  0x00, 0x00, 0x18, 0x00, 0x00, 0x30, 0x00, 0x00, 0x00, 0x00, 0x1C, 0x00, 
  0x00, 0xF0, 0xFF, 0xFF, 0xFF, 0xFF, 0x1F, 0x00, 0x00, 0xE0, 0xFF, 0xFF, 
  0xFF, 0xFF, 0x0F, 0x00, 0x00, 0x00, 0x00, 0x00, 0x00, 0x00, 0x00, 0x00, 
  0x00, 0x00, 0x00, 0x00, 0x00, 0x00, 0x00, 0x00, };
