#define 67b529b1aa9a40fefe07098f475d04e8GwZK7pcdYN9BNK70_width 64
#define 67b529b1aa9a40fefe07098f475d04e8GwZK7pcdYN9BNK70_height 64
static char 67b529b1aa9a40fefe07098f475d04e8GwZK7pcdYN9BNK70_bits[] = {
  0x00, 0x00, 0x00, 0x00, 0x00, 0x00, 0x00, 0x00, 0x00, 0x00, 0x00, 0x00, 
  0x00, 0x00, 0x00, 0x00, 0x00, 0x00, 0x00, 0x00, 0x00, 0x00, 0x00, 0x00, 
  0x00, 0x00, 0x00, 0x00, 0x00, 0x00, 0x00, 0x00, 0x00, 0x00, 0x00, 0x00, 
  0x00, 0x00, 0x00, 0x00, 0x00, 0x00, 0xC0, 0x00, 0x00, 0x03, 0x00, 0x00, 
  0x00, 0x00, 0xF8, 0x07, 0xE0, 0x1F, 0x00, 0x00, 0x00, 0x00, 0x3C, 0x0F, 
  0xF0, 0x3C, 0x00, 0x00, 0x00, 0x00, 0x0E, 0x1C, 0x38, 0x70, 0x00, 0x00, 
  0x00, 0x00, 0x06, 0x18, 0x18, 0x60, 0x00, 0x00, 0x00, 0x00, 0x07, 0x18, 
  0x18, 0xE0, 0x00, 0x00, 0x00, 0x00, 0x03, 0x30, 0x0C, 0xC0, 0x00, 0x00, 
  0x00, 0x00, 0x03, 0x30, 0x0C, 0xC0, 0x00, 0x00, 0x00, 0x00, 0x07, 0x18, 
  0x18, 0xE0, 0x00, 0x00, 0x00, 0x00, 0x06, 0x18, 0x18, 0x60, 0x00, 0x00, 
  0x00, 0x07, 0x0E, 0x1C, 0x38, 0x70, 0xE0, 0x00, 0xC0, 0x1F, 0x3C, 0x0F, 
  0xF0, 0x3C, 0xF8, 0x03, 0xE0, 0x39, 0xF8, 0x07, 0xE0, 0x1F, 0x9C, 0x07, 
  0x70, 0x60, 0xF0, 0x0F, 0xF0, 0x0F, 0x06, 0x0E, 0x38, 0xE0, 0x30, 0x0C, 
  0x30, 0x0C, 0x07, 0x1C, 0x18, 0xC0, 0x30, 0x0C, 0x30, 0x0C, 0x03, 0x18, 
  0x18, 0xC0, 0x30, 0x18, 0x18, 0x0C, 0x03, 0x18, 0x18, 0xC0, 0x30, 0x18, 
  0x18, 0x0C, 0x03, 0x18, 0x18, 0xC0, 0x30, 0x30, 0x0C, 0x0C, 0x03, 0x18, 
  0x38, 0xC0, 0x30, 0x30, 0x0C, 0x0C, 0x03, 0x1C, 0x30, 0xE0, 0x30, 0x70, 
  0x0E, 0x0C, 0x07, 0x0C, 0xE0, 0xF8, 0x31, 0x60, 0x06, 0x8C, 0x1F, 0x07, 
  0xC0, 0x9F, 0x33, 0x60, 0x06, 0xCC, 0xF9, 0x03, 0x00, 0x07, 0x3F, 0xC0, 
  0x03, 0xFC, 0xE0, 0x00, 0x00, 0x07, 0x3E, 0xC0, 0x03, 0x7C, 0xE0, 0x00, 
  0x00, 0x06, 0x1C, 0x00, 0x00, 0x38, 0x60, 0x00, 0x00, 0x0E, 0x18, 0x00, 
  0x00, 0x18, 0x70, 0x00, 0x00, 0x0C, 0x00, 0x00, 0x00, 0x00, 0x30, 0x00, 
  0x00, 0x0C, 0x00, 0x00, 0x00, 0x00, 0x30, 0x00, 0x00, 0x18, 0x00, 0x00, 
  0x00, 0x00, 0x18, 0x00, 0x00, 0x18, 0x00, 0x00, 0x00, 0x00, 0x18, 0x00, 
  0x00, 0x30, 0x00, 0x00, 0x00, 0x00, 0x0C, 0x00, 0x00, 0x30, 0x00, 0x00, 
  0x00, 0x00, 0x0C, 0x00, 0x00, 0x70, 0x00, 0x00, 0x00, 0x00, 0x0E, 0x00, 
  0x00, 0x60, 0x00, 0x00, 0x00, 0x00, 0x06, 0x00, 0x00, 0x60, 0x00, 0x00, 
  0x00, 0x00, 0x06, 0x00, 0x00, 0xC0, 0x00, 0x00, 0x00, 0x00, 0x03, 0x00, 
  0x00, 0xC0, 0x00, 0x00, 0x00, 0x00, 0x03, 0x00, 0x00, 0x80, 0x01, 0x00, 
  0x00, 0x80, 0x01, 0x00, 0x00, 0x80, 0x01, 0x00, 0x00, 0x80, 0x01, 0x00, 
  0x00, 0x00, 0x03, 0x00, 0x00, 0xC0, 0x00, 0x00, 0x00, 0x00, 0xFF, 0xFF, 
  0xFF, 0xFF, 0x00, 0x00, 0x00, 0x00, 0xFF, 0xFF, 0xFF, 0xFF, 0x00, 0x00, 
  0x00, 0xC0, 0x07, 0x00, 0x00, 0xE0, 0x03, 0x00, 0x00, 0xE0, 0x00, 0x00, 
  0x00, 0x00, 0x07, 0x00, 0x00, 0x60, 0x00, 0x00, 0x00, 0x00, 0x06, 0x00, 
  0x00, 0x60, 0x00, 0x00, 0x00, 0x00, 0x06, 0x00, 0x00, 0x30, 0x00, 0x00, 
  0x00, 0x00, 0x0C, 0x00, 0x00, 0x30, 0x00, 0x00, 0x00, 0x00, 0x0C, 0x00, 
  0x00, 0x30, 0x00, 0x00, 0x00, 0x00, 0x0C, 0x00, 0x00, 0x30, 0x00, 0x00, 
  0x00, 0x00, 0x0C, 0x00, 0x00, 0x70, 0x00, 0x00, 0x00, 0x00, 0x0E, 0x00, 
  0x00, 0xF0, 0xFF, 0xFF, 0xFF, 0xFF, 0x0F, 0x00, 0x00, 0xE0, 0xFF, 0xFF, 
  0xFF, 0xFF, 0x07, 0x00, 0x00, 0x00, 0x00, 0x00, 0x00, 0x00, 0x00, 0x00, 
  0x00, 0x00, 0x00, 0x00, 0x00, 0x00, 0x00, 0x00, 0x00, 0x00, 0x00, 0x00, 
  0x00, 0x00, 0x00, 0x00, 0x00, 0x00, 0x00, 0x00, 0x00, 0x00, 0x00, 0x00, 
  0x00, 0x00, 0x00, 0x00, 0x00, 0x00, 0x00, 0x00, };
