#define adf7f1d8f02047589da6faea9c07702ckjNv8SnNLYPQ8dDL_width 64
#define adf7f1d8f02047589da6faea9c07702ckjNv8SnNLYPQ8dDL_height 64
static char adf7f1d8f02047589da6faea9c07702ckjNv8SnNLYPQ8dDL_bits[] = {
  0x00, 0x00, 0x00, 0x00, 0x00, 0x00, 0x00, 0x00, 0x00, 0x00, 0x00, 0x00, 
  0x00, 0x00, 0x00, 0x00, 0x00, 0x00, 0x00, 0x00, 0x00, 0x00, 0x00, 0x00, 
  0x00, 0x00, 0x00, 0xF0, 0x07, 0x00, 0x00, 0x00, 0x00, 0x00, 0x00, 0xF8, 
  0x0F, 0x00, 0x00, 0x00, 0x00, 0x00, 0x00, 0x1C, 0x0C, 0x00, 0x00, 0x00, 
  0x00, 0x00, 0x00, 0x0C, 0x1C, 0x00, 0x00, 0x00, 0x00, 0x00, 0x00, 0x0C, 
  0x18, 0x00, 0x00, 0x00, 0x00, 0x00, 0x00, 0x0C, 0x0C, 0x00, 0x00, 0x00, 
  0x00, 0x00, 0x00, 0x0C, 0x0C, 0x00, 0x00, 0x00, 0x00, 0x00, 0x00, 0x0C, 
  0x0C, 0x00, 0x00, 0x00, 0x00, 0x00, 0x00, 0x1C, 0x0E, 0x00, 0x00, 0x00, 
  0x00, 0x00, 0x00, 0x0E, 0x06, 0x00, 0x00, 0x00, 0x00, 0x00, 0x00, 0x07, 
  0x07, 0x00, 0x00, 0x00, 0x00, 0x00, 0x80, 0x03, 0xC3, 0x00, 0x00, 0x00, 
  0x00, 0x00, 0xC0, 0x81, 0xE1, 0x01, 0x00, 0x00, 0x00, 0x00, 0xC0, 0xC0, 
  0xB1, 0x03, 0x00, 0x00, 0x00, 0x00, 0x60, 0xC0, 0x30, 0x07, 0x00, 0x00, 
  0x00, 0x00, 0x30, 0xE0, 0x30, 0x0E, 0x00, 0x00, 0x00, 0x00, 0x38, 0x60, 
  0x18, 0x1C, 0x00, 0x00, 0x00, 0x00, 0x18, 0x60, 0x18, 0x18, 0x00, 0x00, 
  0x00, 0x00, 0x0C, 0x70, 0x18, 0x38, 0x00, 0x00, 0x00, 0x00, 0x0C, 0x30, 
  0x18, 0x30, 0x00, 0x00, 0x00, 0x00, 0x06, 0x30, 0x18, 0x70, 0x00, 0x00, 
  0x00, 0x00, 0x06, 0x30, 0x0C, 0x60, 0x00, 0x00, 0x00, 0x00, 0x03, 0x30, 
  0x0C, 0x60, 0x00, 0x00, 0x00, 0x00, 0x03, 0x18, 0x0C, 0xC0, 0x00, 0x00, 
  0x00, 0x00, 0x03, 0x18, 0x0C, 0xC0, 0x00, 0x00, 0x00, 0x00, 0x03, 0x18, 
  0x0C, 0xC0, 0x00, 0x00, 0x00, 0x80, 0x01, 0x18, 0x0C, 0xC0, 0x01, 0x00, 
  0x00, 0x80, 0x01, 0x18, 0x0C, 0x80, 0x01, 0x00, 0x00, 0x80, 0x01, 0x18, 
  0x0C, 0x80, 0x01, 0x00, 0x00, 0x80, 0x01, 0x18, 0x0C, 0x80, 0x01, 0x00, 
  0x00, 0x80, 0x01, 0xF0, 0x0F, 0x80, 0x01, 0x00, 0x00, 0x80, 0x01, 0xF0, 
  0x07, 0x80, 0x01, 0x00, 0x00, 0x80, 0x01, 0x00, 0x00, 0x80, 0x01, 0x00, 
  0x00, 0x80, 0x01, 0x00, 0x00, 0x80, 0x01, 0x00, 0x00, 0x00, 0x03, 0x00, 
  0x00, 0x80, 0x01, 0x00, 0x00, 0x00, 0x03, 0x00, 0x00, 0xC0, 0x00, 0x00, 
  0x00, 0x00, 0x03, 0x00, 0x00, 0xC0, 0x00, 0x00, 0x00, 0x00, 0x03, 0x00, 
  0x00, 0xC0, 0x00, 0x00, 0x00, 0x00, 0x06, 0x00, 0x00, 0xE0, 0x00, 0x00, 
  0x00, 0x00, 0x06, 0x00, 0x00, 0x60, 0x00, 0x00, 0x00, 0x00, 0x0C, 0x00, 
  0x00, 0x70, 0x00, 0x00, 0x00, 0x00, 0x0C, 0x00, 0x00, 0x30, 0x00, 0x00, 
  0x00, 0x00, 0x18, 0x00, 0x00, 0x38, 0x00, 0x00, 0x00, 0x00, 0x38, 0x00, 
  0x00, 0x18, 0x00, 0x00, 0x00, 0x00, 0xF8, 0xFF, 0xFF, 0x1F, 0x00, 0x00, 
  0x00, 0x00, 0xFF, 0xFF, 0xFF, 0xFF, 0x00, 0x00, 0x00, 0xC0, 0x07, 0x00, 
  0x00, 0xE0, 0x03, 0x00, 0x00, 0xE0, 0x00, 0x00, 0x00, 0x00, 0x07, 0x00, 
  0x00, 0x60, 0x00, 0x00, 0x00, 0x00, 0x06, 0x00, 0x00, 0x30, 0x00, 0x00, 
  0x00, 0x00, 0x0E, 0x00, 0x00, 0x30, 0x00, 0x00, 0x00, 0x00, 0x0C, 0x00, 
  0x00, 0x30, 0x00, 0x00, 0x00, 0x00, 0x0C, 0x00, 0x00, 0x30, 0x00, 0x00, 
  0x00, 0x00, 0x0C, 0x00, 0x00, 0x30, 0x00, 0x00, 0x00, 0x00, 0x0C, 0x00, 
  0x00, 0x30, 0x00, 0x00, 0x00, 0x00, 0x0C, 0x00, 0x00, 0x30, 0x00, 0x00, 
  0x00, 0x00, 0x0C, 0x00, 0x00, 0xF0, 0xFF, 0xFF, 0xFF, 0xFF, 0x0F, 0x00, 
  0x00, 0xF0, 0xFF, 0xFF, 0xFF, 0xFF, 0x0F, 0x00, 0x00, 0x00, 0x00, 0x00, 
  0x00, 0x00, 0x00, 0x00, 0x00, 0x00, 0x00, 0x00, 0x00, 0x00, 0x00, 0x00, 
  0x00, 0x00, 0x00, 0x00, 0x00, 0x00, 0x00, 0x00, };
